<?xml version="1.0" encoding="UTF-8" ?>
<svg xmlns="http://www.w3.org/2000/svg" version="1.1" width="3185" height="500" >
<rect x="0" y="1" width="50" height="500" fill="rgb(200,200,0)" stroke-width="2" stroke="rgb(100,100,0)" />
<text x="25" y="139" style="font-size: 30px; writing-mode: tb; ">input 48 48 12 </text>
<rect x="65" y="1" width="50" height="500" fill="rgb(120,80,190)" stroke-width="2" stroke="rgb(60,40,95)" />
<text x="90" y="64" style="font-size: 30px; writing-mode: tb; ">dense convolution 3 3 32 </text>
<rect x="130" y="1" width="50" height="500" fill="rgb(190,80,80)" stroke-width="2" stroke="rgb(95,40,40)" />
<text x="155" y="229" style="font-size: 30px; writing-mode: tb; ">elu</text>
<rect x="195" y="1" width="50" height="500" fill="rgb(120,80,190)" stroke-width="2" stroke="rgb(60,40,95)" />
<text x="220" y="64" style="font-size: 30px; writing-mode: tb; ">dense convolution 3 3 32 </text>
<rect x="260" y="1" width="50" height="500" fill="rgb(190,80,80)" stroke-width="2" stroke="rgb(95,40,40)" />
<text x="285" y="229" style="font-size: 30px; writing-mode: tb; ">elu</text>
<rect x="325" y="1" width="50" height="500" fill="rgb(120,80,190)" stroke-width="2" stroke="rgb(60,40,95)" />
<text x="350" y="64" style="font-size: 30px; writing-mode: tb; ">dense convolution 3 3 32 </text>
<rect x="390" y="1" width="50" height="500" fill="rgb(190,80,80)" stroke-width="2" stroke="rgb(95,40,40)" />
<text x="415" y="229" style="font-size: 30px; writing-mode: tb; ">elu</text>
<rect x="455" y="1" width="50" height="500" fill="rgb(120,80,190)" stroke-width="2" stroke="rgb(60,40,95)" />
<text x="480" y="64" style="font-size: 30px; writing-mode: tb; ">dense convolution 3 3 32 </text>
<rect x="520" y="1" width="50" height="500" fill="rgb(190,80,80)" stroke-width="2" stroke="rgb(95,40,40)" />
<text x="545" y="229" style="font-size: 30px; writing-mode: tb; ">elu</text>
<rect x="585" y="1" width="50" height="500" fill="rgb(80,80,190)" stroke-width="2" stroke="rgb(40,40,95)" />
<text x="610" y="109" style="font-size: 30px; writing-mode: tb; ">convolution 1 1 32 </text>
<rect x="650" y="1" width="50" height="500" fill="rgb(190,80,80)" stroke-width="2" stroke="rgb(95,40,40)" />
<text x="675" y="229" style="font-size: 30px; writing-mode: tb; ">elu</text>
<rect x="715" y="1" width="50" height="500" fill="rgb(80,190,80)" stroke-width="2" stroke="rgb(40,95,40)" />
<text x="740" y="116" style="font-size: 30px; writing-mode: tb; ">max pooling 2 2 1 </text>
<rect x="780" y="1" width="50" height="500" fill="rgb(120,80,190)" stroke-width="2" stroke="rgb(60,40,95)" />
<text x="805" y="64" style="font-size: 30px; writing-mode: tb; ">dense convolution 3 3 32 </text>
<rect x="845" y="1" width="50" height="500" fill="rgb(190,80,80)" stroke-width="2" stroke="rgb(95,40,40)" />
<text x="870" y="229" style="font-size: 30px; writing-mode: tb; ">elu</text>
<rect x="910" y="1" width="50" height="500" fill="rgb(120,80,190)" stroke-width="2" stroke="rgb(60,40,95)" />
<text x="935" y="64" style="font-size: 30px; writing-mode: tb; ">dense convolution 3 3 32 </text>
<rect x="975" y="1" width="50" height="500" fill="rgb(190,80,80)" stroke-width="2" stroke="rgb(95,40,40)" />
<text x="1000" y="229" style="font-size: 30px; writing-mode: tb; ">elu</text>
<rect x="1040" y="1" width="50" height="500" fill="rgb(120,80,190)" stroke-width="2" stroke="rgb(60,40,95)" />
<text x="1065" y="64" style="font-size: 30px; writing-mode: tb; ">dense convolution 3 3 32 </text>
<rect x="1105" y="1" width="50" height="500" fill="rgb(190,80,80)" stroke-width="2" stroke="rgb(95,40,40)" />
<text x="1130" y="229" style="font-size: 30px; writing-mode: tb; ">elu</text>
<rect x="1170" y="1" width="50" height="500" fill="rgb(120,80,190)" stroke-width="2" stroke="rgb(60,40,95)" />
<text x="1195" y="64" style="font-size: 30px; writing-mode: tb; ">dense convolution 3 3 32 </text>
<rect x="1235" y="1" width="50" height="500" fill="rgb(190,80,80)" stroke-width="2" stroke="rgb(95,40,40)" />
<text x="1260" y="229" style="font-size: 30px; writing-mode: tb; ">elu</text>
<rect x="1300" y="1" width="50" height="500" fill="rgb(80,80,190)" stroke-width="2" stroke="rgb(40,40,95)" />
<text x="1325" y="109" style="font-size: 30px; writing-mode: tb; ">convolution 1 1 32 </text>
<rect x="1365" y="1" width="50" height="500" fill="rgb(190,80,80)" stroke-width="2" stroke="rgb(95,40,40)" />
<text x="1390" y="229" style="font-size: 30px; writing-mode: tb; ">elu</text>
<rect x="1430" y="1" width="50" height="500" fill="rgb(80,190,80)" stroke-width="2" stroke="rgb(40,95,40)" />
<text x="1455" y="116" style="font-size: 30px; writing-mode: tb; ">max pooling 2 2 1 </text>
<rect x="1495" y="1" width="50" height="500" fill="rgb(120,80,190)" stroke-width="2" stroke="rgb(60,40,95)" />
<text x="1520" y="64" style="font-size: 30px; writing-mode: tb; ">dense convolution 3 3 32 </text>
<rect x="1560" y="1" width="50" height="500" fill="rgb(190,80,80)" stroke-width="2" stroke="rgb(95,40,40)" />
<text x="1585" y="229" style="font-size: 30px; writing-mode: tb; ">elu</text>
<rect x="1625" y="1" width="50" height="500" fill="rgb(120,80,190)" stroke-width="2" stroke="rgb(60,40,95)" />
<text x="1650" y="64" style="font-size: 30px; writing-mode: tb; ">dense convolution 3 3 32 </text>
<rect x="1690" y="1" width="50" height="500" fill="rgb(190,80,80)" stroke-width="2" stroke="rgb(95,40,40)" />
<text x="1715" y="229" style="font-size: 30px; writing-mode: tb; ">elu</text>
<rect x="1755" y="1" width="50" height="500" fill="rgb(120,80,190)" stroke-width="2" stroke="rgb(60,40,95)" />
<text x="1780" y="64" style="font-size: 30px; writing-mode: tb; ">dense convolution 3 3 32 </text>
<rect x="1820" y="1" width="50" height="500" fill="rgb(190,80,80)" stroke-width="2" stroke="rgb(95,40,40)" />
<text x="1845" y="229" style="font-size: 30px; writing-mode: tb; ">elu</text>
<rect x="1885" y="1" width="50" height="500" fill="rgb(120,80,190)" stroke-width="2" stroke="rgb(60,40,95)" />
<text x="1910" y="64" style="font-size: 30px; writing-mode: tb; ">dense convolution 3 3 32 </text>
<rect x="1950" y="1" width="50" height="500" fill="rgb(190,80,80)" stroke-width="2" stroke="rgb(95,40,40)" />
<text x="1975" y="229" style="font-size: 30px; writing-mode: tb; ">elu</text>
<rect x="2015" y="1" width="50" height="500" fill="rgb(80,80,190)" stroke-width="2" stroke="rgb(40,40,95)" />
<text x="2040" y="109" style="font-size: 30px; writing-mode: tb; ">convolution 1 1 32 </text>
<rect x="2080" y="1" width="50" height="500" fill="rgb(190,80,80)" stroke-width="2" stroke="rgb(95,40,40)" />
<text x="2105" y="229" style="font-size: 30px; writing-mode: tb; ">elu</text>
<rect x="2145" y="1" width="50" height="500" fill="rgb(80,190,80)" stroke-width="2" stroke="rgb(40,95,40)" />
<text x="2170" y="116" style="font-size: 30px; writing-mode: tb; ">max pooling 2 2 1 </text>
<rect x="2210" y="1" width="50" height="500" fill="rgb(120,80,190)" stroke-width="2" stroke="rgb(60,40,95)" />
<text x="2235" y="64" style="font-size: 30px; writing-mode: tb; ">dense convolution 3 3 32 </text>
<rect x="2275" y="1" width="50" height="500" fill="rgb(190,80,80)" stroke-width="2" stroke="rgb(95,40,40)" />
<text x="2300" y="229" style="font-size: 30px; writing-mode: tb; ">elu</text>
<rect x="2340" y="1" width="50" height="500" fill="rgb(120,80,190)" stroke-width="2" stroke="rgb(60,40,95)" />
<text x="2365" y="64" style="font-size: 30px; writing-mode: tb; ">dense convolution 3 3 32 </text>
<rect x="2405" y="1" width="50" height="500" fill="rgb(190,80,80)" stroke-width="2" stroke="rgb(95,40,40)" />
<text x="2430" y="229" style="font-size: 30px; writing-mode: tb; ">elu</text>
<rect x="2470" y="1" width="50" height="500" fill="rgb(120,80,190)" stroke-width="2" stroke="rgb(60,40,95)" />
<text x="2495" y="64" style="font-size: 30px; writing-mode: tb; ">dense convolution 3 3 32 </text>
<rect x="2535" y="1" width="50" height="500" fill="rgb(190,80,80)" stroke-width="2" stroke="rgb(95,40,40)" />
<text x="2560" y="229" style="font-size: 30px; writing-mode: tb; ">elu</text>
<rect x="2600" y="1" width="50" height="500" fill="rgb(120,80,190)" stroke-width="2" stroke="rgb(60,40,95)" />
<text x="2625" y="64" style="font-size: 30px; writing-mode: tb; ">dense convolution 3 3 32 </text>
<rect x="2665" y="1" width="50" height="500" fill="rgb(190,80,80)" stroke-width="2" stroke="rgb(95,40,40)" />
<text x="2690" y="229" style="font-size: 30px; writing-mode: tb; ">elu</text>
<rect x="2730" y="1" width="50" height="500" fill="rgb(80,80,190)" stroke-width="2" stroke="rgb(40,40,95)" />
<text x="2755" y="109" style="font-size: 30px; writing-mode: tb; ">convolution 1 1 32 </text>
<rect x="2795" y="1" width="50" height="500" fill="rgb(190,80,80)" stroke-width="2" stroke="rgb(95,40,40)" />
<text x="2820" y="229" style="font-size: 30px; writing-mode: tb; ">elu</text>
<rect x="2860" y="1" width="50" height="500" fill="rgb(80,190,80)" stroke-width="2" stroke="rgb(40,95,40)" />
<text x="2885" y="116" style="font-size: 30px; writing-mode: tb; ">max pooling 2 2 1 </text>
<rect x="2925" y="1" width="50" height="500" fill="rgb(190,190,80)" stroke-width="2" stroke="rgb(95,95,40)" />
<text x="2950" y="169" style="font-size: 30px; writing-mode: tb; ">fc 1 1 256 </text>
<rect x="2990" y="1" width="50" height="500" fill="rgb(190,80,80)" stroke-width="2" stroke="rgb(95,40,40)" />
<text x="3015" y="229" style="font-size: 30px; writing-mode: tb; ">elu</text>
<rect x="3055" y="1" width="50" height="500" fill="rgb(100,100,100)" stroke-width="2" stroke="rgb(50,50,50)" />
<text x="3080" y="199" style="font-size: 30px; writing-mode: tb; ">dropout</text>
<rect x="3120" y="1" width="50" height="500" fill="rgb(190,190,80)" stroke-width="2" stroke="rgb(95,95,40)" />
<text x="3145" y="154" style="font-size: 30px; writing-mode: tb; ">output 1 1 5 </text>
</svg>